<?xml version="1.0" encoding="iso-8859-1"?>
<!-- Generator: Adobe Illustrator 19.0.0, SVG Export Plug-In . SVG Version: 6.00 Build 0)  -->
<svg version="1.1" id="Layer_1" xmlns="http://www.w3.org/2000/svg" xmlns:xlink="http://www.w3.org/1999/xlink" x="0px" y="0px"
	 viewBox="0 0 512 512" style="enable-background:new 0 0 512 512;" xml:space="preserve">
<circle style="fill:#1C9AD6;" cx="119.467" cy="256" r="119.467"/>
<path style="fill:#1C74BB;" d="M145.067,366.933c-65.98,0-119.467-53.487-119.467-119.467c0-47.988,28.299-89.36,69.115-108.359
	C40.614,150.507,0,198.508,0,256c0,65.98,53.487,119.467,119.467,119.467c17.991,0,35.05-3.985,50.352-11.107
	C161.831,366.042,153.554,366.933,145.067,366.933z"/>
<circle style="fill:#FA597D;" cx="392.533" cy="256" r="119.467"/>
<path style="fill:#E0365C;" d="M418.133,366.933c-65.98,0-119.467-53.487-119.467-119.467c0-47.988,28.299-89.36,69.115-108.359
	c-54.1,11.399-94.715,59.401-94.715,116.893c0,65.98,53.487,119.467,119.467,119.467c17.991,0,35.05-3.985,50.352-11.107
	C434.898,366.042,426.621,366.933,418.133,366.933z"/>
<g>
</g>
<g>
</g>
<g>
</g>
<g>
</g>
<g>
</g>
<g>
</g>
<g>
</g>
<g>
</g>
<g>
</g>
<g>
</g>
<g>
</g>
<g>
</g>
<g>
</g>
<g>
</g>
<g>
</g>
</svg>
